<svg width="20" height="17" viewBox="0 0 20 17" fill="none" xmlns="http://www.w3.org/2000/svg">
<path d="M19.1673 1.50008C18.3693 2.06298 17.4857 2.4935 16.5507 2.77508C16.0488 2.198 15.3818 1.78899 14.6398 1.60335C13.8979 1.41771 13.1169 1.46441 12.4024 1.73712C11.6879 2.00984 11.0744 2.49541 10.6448 3.12818C10.2153 3.76094 9.9904 4.51036 10.0007 5.27508V6.10841C8.53618 6.14639 7.08505 5.82159 5.77649 5.16295C4.46794 4.50431 3.34258 3.53228 2.50065 2.33341C2.50065 2.33341 -0.832682 9.83341 6.66732 13.1667C4.95109 14.3317 2.90661 14.9159 0.833984 14.8334C8.33398 19.0001 17.5006 14.8334 17.5006 5.25008C17.4999 5.01796 17.4776 4.78641 17.434 4.55841C18.2845 3.71966 18.8847 2.66067 19.1673 1.50008V1.50008Z" stroke="#333333" stroke-width="1.1" stroke-linecap="round" stroke-linejoin="round"/>
</svg>
